<svg aria-roledescription="er" role="graphics-document document" viewBox="-92 0 826.25 1258" style="max-width: 826.25px; background-color: white;" xmlns:xlink="http://www.w3.org/1999/xlink" xmlns="http://www.w3.org/2000/svg" width="100%" id="my-svg"><style>#my-svg{font-family:"trebuchet ms",verdana,arial,sans-serif;font-size:16px;fill:#ccc;}#my-svg .error-icon{fill:#a44141;}#my-svg .error-text{fill:#ddd;stroke:#ddd;}#my-svg .edge-thickness-normal{stroke-width:1px;}#my-svg .edge-thickness-thick{stroke-width:3.5px;}#my-svg .edge-pattern-solid{stroke-dasharray:0;}#my-svg .edge-thickness-invisible{stroke-width:0;fill:none;}#my-svg .edge-pattern-dashed{stroke-dasharray:3;}#my-svg .edge-pattern-dotted{stroke-dasharray:2;}#my-svg .marker{fill:lightgrey;stroke:lightgrey;}#my-svg .marker.cross{stroke:lightgrey;}#my-svg svg{font-family:"trebuchet ms",verdana,arial,sans-serif;font-size:16px;}#my-svg p{margin:0;}#my-svg .entityBox{fill:#1f2020;stroke:#ccc;}#my-svg .attributeBoxOdd{fill:hsl(0, 0%, 32%);stroke:#ccc;}#my-svg .attributeBoxEven{fill:hsl(0, 0%, 22%);stroke:#ccc;}#my-svg .relationshipLabelBox{fill:hsl(20, 1.5873015873%, 12.3529411765%);opacity:0.7;background-color:hsl(20, 1.5873015873%, 12.3529411765%);}#my-svg .relationshipLabelBox rect{opacity:0.5;}#my-svg .relationshipLine{stroke:lightgrey;}#my-svg .entityTitleText{text-anchor:middle;font-size:18px;fill:#ccc;}#my-svg #MD_PARENT_START{fill:#f5f5f5!important;stroke:lightgrey!important;stroke-width:1;}#my-svg #MD_PARENT_END{fill:#f5f5f5!important;stroke:lightgrey!important;stroke-width:1;}#my-svg :root{--mermaid-font-family:"trebuchet ms",verdana,arial,sans-serif;}</style><g/><defs><marker orient="auto" markerHeight="240" markerWidth="190" refY="7" refX="0" id="MD_PARENT_START"><path d="M 18,7 L9,13 L1,7 L9,1 Z"/></marker></defs><defs><marker orient="auto" markerHeight="28" markerWidth="20" refY="7" refX="19" id="MD_PARENT_END"><path d="M 18,7 L9,13 L1,7 L9,1 Z"/></marker></defs><defs><marker orient="auto" markerHeight="18" markerWidth="18" refY="9" refX="0" id="ONLY_ONE_START"><path d="M9,0 L9,18 M15,0 L15,18" fill="none" stroke="gray"/></marker></defs><defs><marker orient="auto" markerHeight="18" markerWidth="18" refY="9" refX="18" id="ONLY_ONE_END"><path d="M3,0 L3,18 M9,0 L9,18" fill="none" stroke="gray"/></marker></defs><defs><marker orient="auto" markerHeight="18" markerWidth="30" refY="9" refX="0" id="ZERO_OR_ONE_START"><circle r="6" cy="9" cx="21" fill="white" stroke="gray"/><path d="M9,0 L9,18" fill="none" stroke="gray"/></marker></defs><defs><marker orient="auto" markerHeight="18" markerWidth="30" refY="9" refX="30" id="ZERO_OR_ONE_END"><circle r="6" cy="9" cx="9" fill="white" stroke="gray"/><path d="M21,0 L21,18" fill="none" stroke="gray"/></marker></defs><defs><marker orient="auto" markerHeight="36" markerWidth="45" refY="18" refX="18" id="ONE_OR_MORE_START"><path d="M0,18 Q 18,0 36,18 Q 18,36 0,18 M42,9 L42,27" fill="none" stroke="gray"/></marker></defs><defs><marker orient="auto" markerHeight="36" markerWidth="45" refY="18" refX="27" id="ONE_OR_MORE_END"><path d="M3,9 L3,27 M9,18 Q27,0 45,18 Q27,36 9,18" fill="none" stroke="gray"/></marker></defs><defs><marker orient="auto" markerHeight="36" markerWidth="57" refY="18" refX="18" id="ZERO_OR_MORE_START"><circle r="6" cy="18" cx="48" fill="white" stroke="gray"/><path d="M0,18 Q18,0 36,18 Q18,36 0,18" fill="none" stroke="gray"/></marker></defs><defs><marker orient="auto" markerHeight="36" markerWidth="57" refY="18" refX="39" id="ZERO_OR_MORE_END"><circle r="6" cy="18" cx="9" fill="white" stroke="gray"/><path d="M21,18 Q39,0 57,18 Q39,36 21,18" fill="none" stroke="gray"/></marker></defs><path style="stroke: gray; fill: none;" marker-start="url(#ONLY_ONE_START)" marker-end="url(#ONLY_ONE_END)" d="M206.474,173L200.562,181.333C194.65,189.667,182.825,206.333,176.912,223C171,239.667,171,256.333,171,264.667L171,273" class="er relationshipLine"/><path style="stroke: gray; fill: none;" marker-start="url(#ONLY_ONE_START)" marker-end="url(#ONLY_ONE_END)" d="M315.026,173L320.938,181.333C326.85,189.667,338.675,206.333,344.588,235.75C350.5,265.167,350.5,307.333,350.5,349.5C350.5,391.667,350.5,433.833,350.5,469.75C350.5,505.667,350.5,535.333,350.5,565C350.5,594.667,350.5,624.333,354.605,647.5C358.71,670.667,366.92,687.333,371.025,695.667L375.131,704" class="er relationshipLine"/><path style="stroke: gray; fill: none;" marker-start="url(#ONLY_ONE_START)" marker-end="url(#ONLY_ONE_END)" d="M181.25,131.208L146.208,146.507C111.167,161.806,41.083,192.403,6.042,228.785C-29,265.167,-29,307.333,-29,349.5C-29,391.667,-29,433.833,-29,469.75C-29,505.667,-29,535.333,-29,565C-29,594.667,-29,624.333,-29,656.083C-29,687.833,-29,721.667,-29,755.5C-29,789.333,-29,823.167,-17.472,854.667C-5.943,886.167,17.113,915.333,28.642,929.917L40.17,944.5" class="er relationshipLine"/><path style="stroke: gray; fill: none;" marker-start="url(#ONLY_ONE_START)" marker-end="url(#ZERO_OR_MORE_END)" d="M340.25,127.396L381.25,143.33C422.25,159.264,504.25,191.132,545.25,228.149C586.25,265.167,586.25,307.333,586.25,349.5C586.25,391.667,586.25,433.833,586.25,469.75C586.25,505.667,586.25,535.333,586.25,565C586.25,594.667,586.25,624.333,586.25,656.083C586.25,687.833,586.25,721.667,586.25,755.5C586.25,789.333,586.25,823.167,589.544,848.417C592.838,873.667,599.425,890.333,602.719,898.667L606.013,907" class="er relationshipLine"/><path style="stroke: gray; fill: none;" marker-start="url(#ONLY_ONE_START)" marker-end="url(#ZERO_OR_MORE_END)" d="M329,777.525L286,790.771C243,804.017,157,830.508,114,858.338C71,886.167,71,915.333,71,929.917L71,944.5" class="er relationshipLine"/><path style="stroke: gray; fill: none;" marker-start="url(#ONLY_ONE_START)" marker-end="url(#ONE_OR_MORE_END)" d="M472,780.897L507.708,793.581C543.417,806.265,614.833,831.632,647.248,852.65C679.662,873.667,673.075,890.333,669.781,898.667L666.487,907" class="er relationshipLine"/><path style="stroke: gray; fill: none;" marker-start="url(#ONLY_ONE_START)" marker-end="url(#ONE_OR_MORE_END)" d="M400.5,807L400.5,815.333C400.5,823.667,400.5,840.333,400.5,869.75C400.5,899.167,400.5,941.333,400.5,983.5C400.5,1025.667,400.5,1067.833,413.211,1097.25C425.921,1126.667,451.343,1143.333,464.053,1151.667L476.764,1160" class="er relationshipLine"/><path style="stroke: gray; fill: none;" marker-start="url(#ONLY_ONE_START)" marker-end="url(#ZERO_OR_MORE_END)" d="M171,426L171,434.333C171,442.667,171,459.333,171,476C171,492.667,171,509.333,171,517.667L171,526" class="er relationshipLine"/><path style="stroke: gray; fill: none;" marker-start="url(#ONLY_ONE_START)" marker-end="url(#ONLY_ONE_END)" d="M171,604L171,612.333C171,620.667,171,637.333,171,662.583C171,687.833,171,721.667,171,755.5C171,789.333,171,823.167,159.472,854.667C147.943,886.167,124.887,915.333,113.358,929.917L101.83,944.5" class="er relationshipLine"/><path style="stroke: gray; fill: none;" marker-start="url(#ONLY_ONE_START)" marker-end="url(#ONLY_ONE_END)" d="M237.5,586.175L273,597.479C308.5,608.784,379.5,631.392,410.895,651.029C442.29,670.667,434.08,687.333,429.975,695.667L425.869,704" class="er relationshipLine"/><path style="stroke: gray; fill: none;" marker-start="url(#ONLY_ONE_START)" marker-end="url(#ZERO_OR_MORE_END)" d="M636.25,1060L636.25,1068.333C636.25,1076.667,636.25,1093.333,626.887,1110C617.523,1126.667,598.797,1143.333,589.434,1151.667L580.07,1160" class="er relationshipLine"/><g transform="translate(91.5,273 )" id="entity-PACIENTE-d8ca2fa2-fe63-5465-ad7a-b533768c0f7e"><rect height="153" width="159" y="0" x="0" class="er entityBox"/><text style="dominant-baseline: middle; text-anchor: middle; font-size: 12px;" transform="translate(79.5,14)" y="0" x="0" id="text-entity-PACIENTE-d8ca2fa2-fe63-5465-ad7a-b533768c0f7e" class="er entityLabel">PACIENTE</text><rect height="25" width="35" y="28" x="0" class="er attributeBoxOdd"/><text style="dominant-baseline: middle; font-size: 10.2px;" transform="translate(5,40.5)" y="0" x="0" id="text-entity-PACIENTE-d8ca2fa2-fe63-5465-ad7a-b533768c0f7e-attr-1-type" class="er entityLabel">int</text><rect height="25" width="102" y="28" x="35" class="er attributeBoxOdd"/><text style="dominant-baseline: middle; font-size: 10.2px;" transform="translate(40,40.5)" y="0" x="0" id="text-entity-PACIENTE-d8ca2fa2-fe63-5465-ad7a-b533768c0f7e-attr-1-name" class="er entityLabel">id</text><rect height="25" width="22" y="28" x="137" class="er attributeBoxOdd"/><text style="dominant-baseline: middle; font-size: 10.2px;" transform="translate(142,40.5)" y="0" x="0" id="text-entity-PACIENTE-d8ca2fa2-fe63-5465-ad7a-b533768c0f7e-attr-1-key" class="er entityLabel">PK</text><rect height="25" width="35" y="53" x="0" class="er attributeBoxEven"/><text style="dominant-baseline: middle; font-size: 10.2px;" transform="translate(5,65.5)" y="0" x="0" id="text-entity-PACIENTE-d8ca2fa2-fe63-5465-ad7a-b533768c0f7e-attr-2-type" class="er entityLabel">string</text><rect height="25" width="102" y="53" x="35" class="er attributeBoxEven"/><text style="dominant-baseline: middle; font-size: 10.2px;" transform="translate(40,65.5)" y="0" x="0" id="text-entity-PACIENTE-d8ca2fa2-fe63-5465-ad7a-b533768c0f7e-attr-2-name" class="er entityLabel">nombreCompleto</text><rect height="25" width="22" y="53" x="137" class="er attributeBoxEven"/><text style="dominant-baseline: middle; font-size: 10.2px;" transform="translate(142,65.5)" y="0" x="0" id="text-entity-PACIENTE-d8ca2fa2-fe63-5465-ad7a-b533768c0f7e-attr-2-key" class="er entityLabel"/><rect height="25" width="35" y="78" x="0" class="er attributeBoxOdd"/><text style="dominant-baseline: middle; font-size: 10.2px;" transform="translate(5,90.5)" y="0" x="0" id="text-entity-PACIENTE-d8ca2fa2-fe63-5465-ad7a-b533768c0f7e-attr-3-type" class="er entityLabel">string</text><rect height="25" width="102" y="78" x="35" class="er attributeBoxOdd"/><text style="dominant-baseline: middle; font-size: 10.2px;" transform="translate(40,90.5)" y="0" x="0" id="text-entity-PACIENTE-d8ca2fa2-fe63-5465-ad7a-b533768c0f7e-attr-3-name" class="er entityLabel">dni</text><rect height="25" width="22" y="78" x="137" class="er attributeBoxOdd"/><text style="dominant-baseline: middle; font-size: 10.2px;" transform="translate(142,90.5)" y="0" x="0" id="text-entity-PACIENTE-d8ca2fa2-fe63-5465-ad7a-b533768c0f7e-attr-3-key" class="er entityLabel"/><rect height="25" width="35" y="103" x="0" class="er attributeBoxEven"/><text style="dominant-baseline: middle; font-size: 10.2px;" transform="translate(5,115.5)" y="0" x="0" id="text-entity-PACIENTE-d8ca2fa2-fe63-5465-ad7a-b533768c0f7e-attr-4-type" class="er entityLabel">string</text><rect height="25" width="102" y="103" x="35" class="er attributeBoxEven"/><text style="dominant-baseline: middle; font-size: 10.2px;" transform="translate(40,115.5)" y="0" x="0" id="text-entity-PACIENTE-d8ca2fa2-fe63-5465-ad7a-b533768c0f7e-attr-4-name" class="er entityLabel">informacionContacto</text><rect height="25" width="22" y="103" x="137" class="er attributeBoxEven"/><text style="dominant-baseline: middle; font-size: 10.2px;" transform="translate(142,115.5)" y="0" x="0" id="text-entity-PACIENTE-d8ca2fa2-fe63-5465-ad7a-b533768c0f7e-attr-4-key" class="er entityLabel"/><rect height="25" width="35" y="128" x="0" class="er attributeBoxOdd"/><text style="dominant-baseline: middle; font-size: 10.2px;" transform="translate(5,140.5)" y="0" x="0" id="text-entity-PACIENTE-d8ca2fa2-fe63-5465-ad7a-b533768c0f7e-attr-5-type" class="er entityLabel">string</text><rect height="25" width="102" y="128" x="35" class="er attributeBoxOdd"/><text style="dominant-baseline: middle; font-size: 10.2px;" transform="translate(40,140.5)" y="0" x="0" id="text-entity-PACIENTE-d8ca2fa2-fe63-5465-ad7a-b533768c0f7e-attr-5-name" class="er entityLabel">obraSocial</text><rect height="25" width="22" y="128" x="137" class="er attributeBoxOdd"/><text style="dominant-baseline: middle; font-size: 10.2px;" transform="translate(142,140.5)" y="0" x="0" id="text-entity-PACIENTE-d8ca2fa2-fe63-5465-ad7a-b533768c0f7e-attr-5-key" class="er entityLabel"/></g><g transform="translate(329,704 )" id="entity-MEDICO-4ca0e1ba-3ce8-5bbe-a684-7264c3c7932d"><rect height="103" width="143" y="0" x="0" class="er entityBox"/><text style="dominant-baseline: middle; text-anchor: middle; font-size: 12px;" transform="translate(71.5,14)" y="0" x="0" id="text-entity-MEDICO-4ca0e1ba-3ce8-5bbe-a684-7264c3c7932d" class="er entityLabel">MEDICO</text><rect height="25" width="35" y="28" x="0" class="er attributeBoxOdd"/><text style="dominant-baseline: middle; font-size: 10.2px;" transform="translate(5,40.5)" y="0" x="0" id="text-entity-MEDICO-4ca0e1ba-3ce8-5bbe-a684-7264c3c7932d-attr-1-type" class="er entityLabel">int</text><rect height="25" width="86" y="28" x="35" class="er attributeBoxOdd"/><text style="dominant-baseline: middle; font-size: 10.2px;" transform="translate(40,40.5)" y="0" x="0" id="text-entity-MEDICO-4ca0e1ba-3ce8-5bbe-a684-7264c3c7932d-attr-1-name" class="er entityLabel">id</text><rect height="25" width="22" y="28" x="121" class="er attributeBoxOdd"/><text style="dominant-baseline: middle; font-size: 10.2px;" transform="translate(126,40.5)" y="0" x="0" id="text-entity-MEDICO-4ca0e1ba-3ce8-5bbe-a684-7264c3c7932d-attr-1-key" class="er entityLabel">PK</text><rect height="25" width="35" y="53" x="0" class="er attributeBoxEven"/><text style="dominant-baseline: middle; font-size: 10.2px;" transform="translate(5,65.5)" y="0" x="0" id="text-entity-MEDICO-4ca0e1ba-3ce8-5bbe-a684-7264c3c7932d-attr-2-type" class="er entityLabel">string</text><rect height="25" width="86" y="53" x="35" class="er attributeBoxEven"/><text style="dominant-baseline: middle; font-size: 10.2px;" transform="translate(40,65.5)" y="0" x="0" id="text-entity-MEDICO-4ca0e1ba-3ce8-5bbe-a684-7264c3c7932d-attr-2-name" class="er entityLabel">nombreCompleto</text><rect height="25" width="22" y="53" x="121" class="er attributeBoxEven"/><text style="dominant-baseline: middle; font-size: 10.2px;" transform="translate(126,65.5)" y="0" x="0" id="text-entity-MEDICO-4ca0e1ba-3ce8-5bbe-a684-7264c3c7932d-attr-2-key" class="er entityLabel"/><rect height="25" width="35" y="78" x="0" class="er attributeBoxOdd"/><text style="dominant-baseline: middle; font-size: 10.2px;" transform="translate(5,90.5)" y="0" x="0" id="text-entity-MEDICO-4ca0e1ba-3ce8-5bbe-a684-7264c3c7932d-attr-3-type" class="er entityLabel">string</text><rect height="25" width="86" y="78" x="35" class="er attributeBoxOdd"/><text style="dominant-baseline: middle; font-size: 10.2px;" transform="translate(40,90.5)" y="0" x="0" id="text-entity-MEDICO-4ca0e1ba-3ce8-5bbe-a684-7264c3c7932d-attr-3-name" class="er entityLabel">numeroMatricula</text><rect height="25" width="22" y="78" x="121" class="er attributeBoxOdd"/><text style="dominant-baseline: middle; font-size: 10.2px;" transform="translate(126,90.5)" y="0" x="0" id="text-entity-MEDICO-4ca0e1ba-3ce8-5bbe-a684-7264c3c7932d-attr-3-key" class="er entityLabel"/></g><g transform="translate(20,944.5 )" id="entity-ESPECIALIDAD-65b70f59-6ea2-5451-9f87-7f3e290c7603"><rect height="78" width="102" y="0" x="0" class="er entityBox"/><text style="dominant-baseline: middle; text-anchor: middle; font-size: 12px;" transform="translate(51,14)" y="0" x="0" id="text-entity-ESPECIALIDAD-65b70f59-6ea2-5451-9f87-7f3e290c7603" class="er entityLabel">ESPECIALIDAD</text><rect height="25" width="35.333333333333336" y="28" x="0" class="er attributeBoxOdd"/><text style="dominant-baseline: middle; font-size: 10.2px;" transform="translate(5,40.5)" y="0" x="0" id="text-entity-ESPECIALIDAD-65b70f59-6ea2-5451-9f87-7f3e290c7603-attr-1-type" class="er entityLabel">int</text><rect height="25" width="44.333333333333336" y="28" x="35.333333333333336" class="er attributeBoxOdd"/><text style="dominant-baseline: middle; font-size: 10.2px;" transform="translate(40.333333333333336,40.5)" y="0" x="0" id="text-entity-ESPECIALIDAD-65b70f59-6ea2-5451-9f87-7f3e290c7603-attr-1-name" class="er entityLabel">id</text><rect height="25" width="22.333333333333332" y="28" x="79.66666666666667" class="er attributeBoxOdd"/><text style="dominant-baseline: middle; font-size: 10.2px;" transform="translate(84.66666666666667,40.5)" y="0" x="0" id="text-entity-ESPECIALIDAD-65b70f59-6ea2-5451-9f87-7f3e290c7603-attr-1-key" class="er entityLabel">PK</text><rect height="25" width="35.333333333333336" y="53" x="0" class="er attributeBoxEven"/><text style="dominant-baseline: middle; font-size: 10.2px;" transform="translate(5,65.5)" y="0" x="0" id="text-entity-ESPECIALIDAD-65b70f59-6ea2-5451-9f87-7f3e290c7603-attr-2-type" class="er entityLabel">string</text><rect height="25" width="44.333333333333336" y="53" x="35.333333333333336" class="er attributeBoxEven"/><text style="dominant-baseline: middle; font-size: 10.2px;" transform="translate(40.333333333333336,65.5)" y="0" x="0" id="text-entity-ESPECIALIDAD-65b70f59-6ea2-5451-9f87-7f3e290c7603-attr-2-name" class="er entityLabel">nombre</text><rect height="25" width="22.333333333333332" y="53" x="79.66666666666667" class="er attributeBoxEven"/><text style="dominant-baseline: middle; font-size: 10.2px;" transform="translate(84.66666666666667,65.5)" y="0" x="0" id="text-entity-ESPECIALIDAD-65b70f59-6ea2-5451-9f87-7f3e290c7603-attr-2-key" class="er entityLabel"/></g><g transform="translate(181.25,20 )" id="entity-TURNO-533efc24-d1f4-5fbf-9bec-72e0beb78d1c"><rect height="153" width="159" y="0" x="0" class="er entityBox"/><text style="dominant-baseline: middle; text-anchor: middle; font-size: 12px;" transform="translate(79.5,14)" y="0" x="0" id="text-entity-TURNO-533efc24-d1f4-5fbf-9bec-72e0beb78d1c" class="er entityLabel">TURNO</text><rect height="25" width="51" y="28" x="0" class="er attributeBoxOdd"/><text style="dominant-baseline: middle; font-size: 10.2px;" transform="translate(5,40.5)" y="0" x="0" id="text-entity-TURNO-533efc24-d1f4-5fbf-9bec-72e0beb78d1c-attr-1-type" class="er entityLabel">int</text><rect height="25" width="86" y="28" x="51" class="er attributeBoxOdd"/><text style="dominant-baseline: middle; font-size: 10.2px;" transform="translate(56,40.5)" y="0" x="0" id="text-entity-TURNO-533efc24-d1f4-5fbf-9bec-72e0beb78d1c-attr-1-name" class="er entityLabel">id</text><rect height="25" width="22" y="28" x="137" class="er attributeBoxOdd"/><text style="dominant-baseline: middle; font-size: 10.2px;" transform="translate(142,40.5)" y="0" x="0" id="text-entity-TURNO-533efc24-d1f4-5fbf-9bec-72e0beb78d1c-attr-1-key" class="er entityLabel">PK</text><rect height="25" width="51" y="53" x="0" class="er attributeBoxEven"/><text style="dominant-baseline: middle; font-size: 10.2px;" transform="translate(5,65.5)" y="0" x="0" id="text-entity-TURNO-533efc24-d1f4-5fbf-9bec-72e0beb78d1c-attr-2-type" class="er entityLabel">datetime</text><rect height="25" width="86" y="53" x="51" class="er attributeBoxEven"/><text style="dominant-baseline: middle; font-size: 10.2px;" transform="translate(56,65.5)" y="0" x="0" id="text-entity-TURNO-533efc24-d1f4-5fbf-9bec-72e0beb78d1c-attr-2-name" class="er entityLabel">fechaHoraTURNO</text><rect height="25" width="22" y="53" x="137" class="er attributeBoxEven"/><text style="dominant-baseline: middle; font-size: 10.2px;" transform="translate(142,65.5)" y="0" x="0" id="text-entity-TURNO-533efc24-d1f4-5fbf-9bec-72e0beb78d1c-attr-2-key" class="er entityLabel"/><rect height="25" width="51" y="78" x="0" class="er attributeBoxOdd"/><text style="dominant-baseline: middle; font-size: 10.2px;" transform="translate(5,90.5)" y="0" x="0" id="text-entity-TURNO-533efc24-d1f4-5fbf-9bec-72e0beb78d1c-attr-3-type" class="er entityLabel">string</text><rect height="25" width="86" y="78" x="51" class="er attributeBoxOdd"/><text style="dominant-baseline: middle; font-size: 10.2px;" transform="translate(56,90.5)" y="0" x="0" id="text-entity-TURNO-533efc24-d1f4-5fbf-9bec-72e0beb78d1c-attr-3-name" class="er entityLabel">estado</text><rect height="25" width="22" y="78" x="137" class="er attributeBoxOdd"/><text style="dominant-baseline: middle; font-size: 10.2px;" transform="translate(142,90.5)" y="0" x="0" id="text-entity-TURNO-533efc24-d1f4-5fbf-9bec-72e0beb78d1c-attr-3-key" class="er entityLabel"/><rect height="25" width="51" y="103" x="0" class="er attributeBoxEven"/><text style="dominant-baseline: middle; font-size: 10.2px;" transform="translate(5,115.5)" y="0" x="0" id="text-entity-TURNO-533efc24-d1f4-5fbf-9bec-72e0beb78d1c-attr-4-type" class="er entityLabel">string</text><rect height="25" width="86" y="103" x="51" class="er attributeBoxEven"/><text style="dominant-baseline: middle; font-size: 10.2px;" transform="translate(56,115.5)" y="0" x="0" id="text-entity-TURNO-533efc24-d1f4-5fbf-9bec-72e0beb78d1c-attr-4-name" class="er entityLabel">motivoConsulta</text><rect height="25" width="22" y="103" x="137" class="er attributeBoxEven"/><text style="dominant-baseline: middle; font-size: 10.2px;" transform="translate(142,115.5)" y="0" x="0" id="text-entity-TURNO-533efc24-d1f4-5fbf-9bec-72e0beb78d1c-attr-4-key" class="er entityLabel"/><rect height="25" width="51" y="128" x="0" class="er attributeBoxOdd"/><text style="dominant-baseline: middle; font-size: 10.2px;" transform="translate(5,140.5)" y="0" x="0" id="text-entity-TURNO-533efc24-d1f4-5fbf-9bec-72e0beb78d1c-attr-5-type" class="er entityLabel">datetime</text><rect height="25" width="86" y="128" x="51" class="er attributeBoxOdd"/><text style="dominant-baseline: middle; font-size: 10.2px;" transform="translate(56,140.5)" y="0" x="0" id="text-entity-TURNO-533efc24-d1f4-5fbf-9bec-72e0beb78d1c-attr-5-name" class="er entityLabel">creadoEn</text><rect height="25" width="22" y="128" x="137" class="er attributeBoxOdd"/><text style="dominant-baseline: middle; font-size: 10.2px;" transform="translate(142,140.5)" y="0" x="0" id="text-entity-TURNO-533efc24-d1f4-5fbf-9bec-72e0beb78d1c-attr-5-key" class="er entityLabel"/></g><g transform="translate(104.5,526 )" id="entity-LISTAESPERA-ccab7c94-f9e7-5711-9c7a-ccd3fe720f62"><rect height="78" width="133" y="0" x="0" class="er entityBox"/><text style="dominant-baseline: middle; text-anchor: middle; font-size: 12px;" transform="translate(66.5,14)" y="0" x="0" id="text-entity-LISTAESPERA-ccab7c94-f9e7-5711-9c7a-ccd3fe720f62" class="er entityLabel">LISTA_ESPERA</text><rect height="25" width="51" y="28" x="0" class="er attributeBoxOdd"/><text style="dominant-baseline: middle; font-size: 10.2px;" transform="translate(5,40.5)" y="0" x="0" id="text-entity-LISTAESPERA-ccab7c94-f9e7-5711-9c7a-ccd3fe720f62-attr-1-type" class="er entityLabel">int</text><rect height="25" width="60" y="28" x="51" class="er attributeBoxOdd"/><text style="dominant-baseline: middle; font-size: 10.2px;" transform="translate(56,40.5)" y="0" x="0" id="text-entity-LISTAESPERA-ccab7c94-f9e7-5711-9c7a-ccd3fe720f62-attr-1-name" class="er entityLabel">id</text><rect height="25" width="22" y="28" x="111" class="er attributeBoxOdd"/><text style="dominant-baseline: middle; font-size: 10.2px;" transform="translate(116,40.5)" y="0" x="0" id="text-entity-LISTAESPERA-ccab7c94-f9e7-5711-9c7a-ccd3fe720f62-attr-1-key" class="er entityLabel">PK</text><rect height="25" width="51" y="53" x="0" class="er attributeBoxEven"/><text style="dominant-baseline: middle; font-size: 10.2px;" transform="translate(5,65.5)" y="0" x="0" id="text-entity-LISTAESPERA-ccab7c94-f9e7-5711-9c7a-ccd3fe720f62-attr-2-type" class="er entityLabel">datetime</text><rect height="25" width="60" y="53" x="51" class="er attributeBoxEven"/><text style="dominant-baseline: middle; font-size: 10.2px;" transform="translate(56,65.5)" y="0" x="0" id="text-entity-LISTAESPERA-ccab7c94-f9e7-5711-9c7a-ccd3fe720f62-attr-2-name" class="er entityLabel">agregadoEn</text><rect height="25" width="22" y="53" x="111" class="er attributeBoxEven"/><text style="dominant-baseline: middle; font-size: 10.2px;" transform="translate(116,65.5)" y="0" x="0" id="text-entity-LISTAESPERA-ccab7c94-f9e7-5711-9c7a-ccd3fe720f62-attr-2-key" class="er entityLabel"/></g><g transform="translate(558.25,907 )" id="entity-AGENDA-c52440cf-4908-5896-b495-39cec95e58f1"><rect height="153" width="156" y="0" x="0" class="er entityBox"/><text style="dominant-baseline: middle; text-anchor: middle; font-size: 12px;" transform="translate(78,14)" y="0" x="0" id="text-entity-AGENDA-c52440cf-4908-5896-b495-39cec95e58f1" class="er entityLabel">AGENDA</text><rect height="25" width="51" y="28" x="0" class="er attributeBoxOdd"/><text style="dominant-baseline: middle; font-size: 10.2px;" transform="translate(5,40.5)" y="0" x="0" id="text-entity-AGENDA-c52440cf-4908-5896-b495-39cec95e58f1-attr-1-type" class="er entityLabel">int</text><rect height="25" width="83" y="28" x="51" class="er attributeBoxOdd"/><text style="dominant-baseline: middle; font-size: 10.2px;" transform="translate(56,40.5)" y="0" x="0" id="text-entity-AGENDA-c52440cf-4908-5896-b495-39cec95e58f1-attr-1-name" class="er entityLabel">id</text><rect height="25" width="22" y="28" x="134" class="er attributeBoxOdd"/><text style="dominant-baseline: middle; font-size: 10.2px;" transform="translate(139,40.5)" y="0" x="0" id="text-entity-AGENDA-c52440cf-4908-5896-b495-39cec95e58f1-attr-1-key" class="er entityLabel">PK</text><rect height="25" width="51" y="53" x="0" class="er attributeBoxEven"/><text style="dominant-baseline: middle; font-size: 10.2px;" transform="translate(5,65.5)" y="0" x="0" id="text-entity-AGENDA-c52440cf-4908-5896-b495-39cec95e58f1-attr-2-type" class="er entityLabel">string</text><rect height="25" width="83" y="53" x="51" class="er attributeBoxEven"/><text style="dominant-baseline: middle; font-size: 10.2px;" transform="translate(56,65.5)" y="0" x="0" id="text-entity-AGENDA-c52440cf-4908-5896-b495-39cec95e58f1-attr-2-name" class="er entityLabel">clasificacion</text><rect height="25" width="22" y="53" x="134" class="er attributeBoxEven"/><text style="dominant-baseline: middle; font-size: 10.2px;" transform="translate(139,65.5)" y="0" x="0" id="text-entity-AGENDA-c52440cf-4908-5896-b495-39cec95e58f1-attr-2-key" class="er entityLabel"/><rect height="25" width="51" y="78" x="0" class="er attributeBoxOdd"/><text style="dominant-baseline: middle; font-size: 10.2px;" transform="translate(5,90.5)" y="0" x="0" id="text-entity-AGENDA-c52440cf-4908-5896-b495-39cec95e58f1-attr-3-type" class="er entityLabel">string</text><rect height="25" width="83" y="78" x="51" class="er attributeBoxOdd"/><text style="dominant-baseline: middle; font-size: 10.2px;" transform="translate(56,90.5)" y="0" x="0" id="text-entity-AGENDA-c52440cf-4908-5896-b495-39cec95e58f1-attr-3-name" class="er entityLabel">estado</text><rect height="25" width="22" y="78" x="134" class="er attributeBoxOdd"/><text style="dominant-baseline: middle; font-size: 10.2px;" transform="translate(139,90.5)" y="0" x="0" id="text-entity-AGENDA-c52440cf-4908-5896-b495-39cec95e58f1-attr-3-key" class="er entityLabel"/><rect height="25" width="51" y="103" x="0" class="er attributeBoxEven"/><text style="dominant-baseline: middle; font-size: 10.2px;" transform="translate(5,115.5)" y="0" x="0" id="text-entity-AGENDA-c52440cf-4908-5896-b495-39cec95e58f1-attr-4-type" class="er entityLabel">datetime</text><rect height="25" width="83" y="103" x="51" class="er attributeBoxEven"/><text style="dominant-baseline: middle; font-size: 10.2px;" transform="translate(56,115.5)" y="0" x="0" id="text-entity-AGENDA-c52440cf-4908-5896-b495-39cec95e58f1-attr-4-name" class="er entityLabel">disponibleDesde</text><rect height="25" width="22" y="103" x="134" class="er attributeBoxEven"/><text style="dominant-baseline: middle; font-size: 10.2px;" transform="translate(139,115.5)" y="0" x="0" id="text-entity-AGENDA-c52440cf-4908-5896-b495-39cec95e58f1-attr-4-key" class="er entityLabel"/><rect height="25" width="51" y="128" x="0" class="er attributeBoxOdd"/><text style="dominant-baseline: middle; font-size: 10.2px;" transform="translate(5,140.5)" y="0" x="0" id="text-entity-AGENDA-c52440cf-4908-5896-b495-39cec95e58f1-attr-5-type" class="er entityLabel">datetime</text><rect height="25" width="83" y="128" x="51" class="er attributeBoxOdd"/><text style="dominant-baseline: middle; font-size: 10.2px;" transform="translate(56,140.5)" y="0" x="0" id="text-entity-AGENDA-c52440cf-4908-5896-b495-39cec95e58f1-attr-5-name" class="er entityLabel">disponibleHasta</text><rect height="25" width="22" y="128" x="134" class="er attributeBoxOdd"/><text style="dominant-baseline: middle; font-size: 10.2px;" transform="translate(139,140.5)" y="0" x="0" id="text-entity-AGENDA-c52440cf-4908-5896-b495-39cec95e58f1-attr-5-key" class="er entityLabel"/></g><g transform="translate(466.25,1160 )" id="entity-SOBRETURNO-eac2d1bf-d9d4-542a-af7c-9cf49fc382b0"><rect height="78" width="140" y="0" x="0" class="er entityBox"/><text style="dominant-baseline: middle; text-anchor: middle; font-size: 12px;" transform="translate(70,14)" y="0" x="0" id="text-entity-SOBRETURNO-eac2d1bf-d9d4-542a-af7c-9cf49fc382b0" class="er entityLabel">SOBRETURNO</text><rect height="25" width="22" y="28" x="0" class="er attributeBoxOdd"/><text style="dominant-baseline: middle; font-size: 10.2px;" transform="translate(5,40.5)" y="0" x="0" id="text-entity-SOBRETURNO-eac2d1bf-d9d4-542a-af7c-9cf49fc382b0-attr-1-type" class="er entityLabel">int</text><rect height="25" width="96" y="28" x="22" class="er attributeBoxOdd"/><text style="dominant-baseline: middle; font-size: 10.2px;" transform="translate(27,40.5)" y="0" x="0" id="text-entity-SOBRETURNO-eac2d1bf-d9d4-542a-af7c-9cf49fc382b0-attr-1-name" class="er entityLabel">id</text><rect height="25" width="22" y="28" x="118" class="er attributeBoxOdd"/><text style="dominant-baseline: middle; font-size: 10.2px;" transform="translate(123,40.5)" y="0" x="0" id="text-entity-SOBRETURNO-eac2d1bf-d9d4-542a-af7c-9cf49fc382b0-attr-1-key" class="er entityLabel">PK</text><rect height="25" width="22" y="53" x="0" class="er attributeBoxEven"/><text style="dominant-baseline: middle; font-size: 10.2px;" transform="translate(5,65.5)" y="0" x="0" id="text-entity-SOBRETURNO-eac2d1bf-d9d4-542a-af7c-9cf49fc382b0-attr-2-type" class="er entityLabel">int</text><rect height="25" width="96" y="53" x="22" class="er attributeBoxEven"/><text style="dominant-baseline: middle; font-size: 10.2px;" transform="translate(27,65.5)" y="0" x="0" id="text-entity-SOBRETURNO-eac2d1bf-d9d4-542a-af7c-9cf49fc382b0-attr-2-name" class="er entityLabel">maximoSobreturnos</text><rect height="25" width="22" y="53" x="118" class="er attributeBoxEven"/><text style="dominant-baseline: middle; font-size: 10.2px;" transform="translate(123,65.5)" y="0" x="0" id="text-entity-SOBRETURNO-eac2d1bf-d9d4-542a-af7c-9cf49fc382b0-attr-2-key" class="er entityLabel"/></g><rect height="18" width="68" y="210.4263916015625" x="144.26747131347656" class="er relationshipLabelBox"/><text style="text-anchor: middle; dominant-baseline: middle; font-size: 12px;" y="219.4263916015625" x="178.26747131347656" id="rel1" class="er relationshipLabel">pertenece a</text><rect height="18" width="56" y="427.729248046875" x="322.5" class="er relationshipLabelBox"/><text style="text-anchor: middle; dominant-baseline: middle; font-size: 12px;" y="436.729248046875" x="350.5" id="rel2" class="er relationshipLabel">asignada a</text><rect height="18" width="86" y="481.7231140136719" x="-71.99999618530273" class="er relationshipLabelBox"/><text style="text-anchor: middle; dominant-baseline: middle; font-size: 12px;" y="490.7231140136719" x="-28.999996185302734" id="rel3" class="er relationshipLabel">relacionada con</text><rect height="18" width="57" y="439.354736328125" x="557.75" class="er relationshipLabelBox"/><text style="text-anchor: middle; dominant-baseline: middle; font-size: 12px;" y="448.354736328125" x="586.25" id="rel4" class="er relationshipLabel">en agenda</text><rect height="18" width="74" y="821.12060546875" x="134.26220703125" class="er relationshipLabelBox"/><text style="text-anchor: middle; dominant-baseline: middle; font-size: 12px;" y="830.12060546875" x="171.26220703125" id="rel5" class="er relationshipLabel">tiene muchas</text><rect height="18" width="45" y="816.2861938476562" x="569.1790161132812" class="er relationshipLabelBox"/><text style="text-anchor: middle; dominant-baseline: middle; font-size: 12px;" y="825.2861938476562" x="591.6790161132812" id="rel6" class="er relationshipLabel">gestiona</text><rect height="18" width="70" y="989.2584228515625" x="365.5210876464844" class="er relationshipLabelBox"/><text style="text-anchor: middle; dominant-baseline: middle; font-size: 12px;" y="998.2584228515625" x="400.5210876464844" id="rel7" class="er relationshipLabel">puede tener</text><rect height="18" width="85" y="467" x="128.5" class="er relationshipLabelBox"/><text style="text-anchor: middle; dominant-baseline: middle; font-size: 12px;" y="476" x="171" id="rel8" class="er relationshipLabel">puede estar en</text><rect height="18" width="24" y="774.5513305664062" x="158.75489807128906" class="er relationshipLabelBox"/><text style="text-anchor: middle; dominant-baseline: middle; font-size: 12px;" y="783.5513305664062" x="170.75489807128906" id="rel9" class="er relationshipLabel">para</text><rect height="18" width="19" y="616.737548828125" x="346.3524169921875" class="er relationshipLabelBox"/><text style="text-anchor: middle; dominant-baseline: middle; font-size: 12px;" y="625.737548828125" x="355.8524169921875" id="rel10" class="er relationshipLabel">con</text><rect height="18" width="70" y="1108.2667236328125" x="587.2503051757812" class="er relationshipLabelBox"/><text style="text-anchor: middle; dominant-baseline: middle; font-size: 12px;" y="1117.2667236328125" x="622.2503051757812" id="rel11" class="er relationshipLabel">puede tener</text></svg>